<svg width="14" height="17" viewBox="0 0 14 17" fill="none" xmlns="http://www.w3.org/2000/svg">
<path d="M10.2766 4.60092V3.66514C10.2766 3.57936 10.2096 3.50917 10.1277 3.50917H2.97872C2.89681 3.50917 2.82979 3.57936 2.82979 3.66514V4.60092C2.82979 4.6867 2.89681 4.75688 2.97872 4.75688H10.1277C10.2096 4.75688 10.2766 4.6867 10.2766 4.60092ZM2.97872 6.31651C2.89681 6.31651 2.82979 6.3867 2.82979 6.47248V7.40826C2.82979 7.49404 2.89681 7.56422 2.97872 7.56422H6.40426C6.48617 7.56422 6.55319 7.49404 6.55319 7.40826V6.47248C6.55319 6.3867 6.48617 6.31651 6.40426 6.31651H2.97872ZM9.97872 8.57798C7.75771 8.57798 5.95745 10.4632 5.95745 12.789C5.95745 15.1148 7.75771 17 9.97872 17C12.1997 17 14 15.1148 14 12.789C14 10.4632 12.1997 8.57798 9.97872 8.57798ZM11.9801 14.8847C11.4457 15.4443 10.7346 15.7523 9.97872 15.7523C9.22287 15.7523 8.5117 15.4443 7.97739 14.8847C7.44308 14.3252 7.14894 13.5805 7.14894 12.789C7.14894 11.9975 7.44308 11.2528 7.97739 10.6932C8.5117 10.1337 9.22287 9.82569 9.97872 9.82569C10.7346 9.82569 11.4457 10.1337 11.9801 10.6932C12.5144 11.2528 12.8085 11.9975 12.8085 12.789C12.8085 13.5805 12.5144 14.3252 11.9801 14.8847ZM11.6356 11.3073H10.8109C10.7625 11.3073 10.7178 11.3307 10.6899 11.3717L9.50771 13.0834L9.07766 12.4615C9.06388 12.4414 9.0457 12.425 9.02464 12.4139C9.00358 12.4027 8.98026 12.3969 8.95665 12.3971H8.13564C8.01463 12.3971 7.94388 12.5414 8.01463 12.6447L9.38856 14.6352C9.44814 14.721 9.56915 14.721 9.62872 14.6352L11.7548 11.5549C11.8274 11.4516 11.7566 11.3073 11.6356 11.3073ZM5.65957 15.1284H1.34043V1.40367H11.766V8.11009C11.766 8.19587 11.833 8.26606 11.9149 8.26606H12.9574C13.0394 8.26606 13.1064 8.19587 13.1064 8.11009V0.623853C13.1064 0.278784 12.8402 0 12.5106 0H0.595745C0.266223 0 0 0.278784 0 0.623853V15.9083C0 16.2533 0.266223 16.5321 0.595745 16.5321H5.65957C5.74149 16.5321 5.80851 16.4619 5.80851 16.3761V15.2844C5.80851 15.1986 5.74149 15.1284 5.65957 15.1284Z" fill="#FF0808"/>
</svg>
