<svg width="15" height="15" viewBox="0 0 15 15" fill="none" xmlns="http://www.w3.org/2000/svg">
<path d="M7.5 8C6.83696 8 6.20107 8.26339 5.73223 8.73223C5.26339 9.20107 5 9.83696 5 10.5C5 11.163 5.26339 11.7989 5.73223 12.2678C6.20107 12.7366 6.83696 13 7.5 13C8.16304 13 8.79893 12.7366 9.26777 12.2678C9.73661 11.7989 10 11.163 10 10.5C10 9.83696 9.73661 9.20107 9.26777 8.73223C8.79893 8.26339 8.16304 8 7.5 8ZM6.42857 10.5C6.42857 10.2158 6.54145 9.94332 6.74239 9.74239C6.94332 9.54145 7.21584 9.42857 7.5 9.42857C7.78416 9.42857 8.05668 9.54145 8.25761 9.74239C8.45855 9.94332 8.57143 10.2158 8.57143 10.5C8.57143 10.7842 8.45855 11.0567 8.25761 11.2576C8.05668 11.4585 7.78416 11.5714 7.5 11.5714C7.21584 11.5714 6.94332 11.4585 6.74239 11.2576C6.54145 11.0567 6.42857 10.7842 6.42857 10.5Z" fill="#37AB75"/>
<path d="M11.4471 3.1327L9.17643 0L0.827143 6.56342L0.364286 6.5585V6.56553H0V15H15V6.56553H14.3129L12.9457 2.63015L11.4471 3.1327ZM12.8036 6.56553H5.64071L10.9757 4.77602L12.0629 4.43372L12.8036 6.56553ZM10.0357 3.60644L4.52857 5.45359L8.89 2.02498L10.0357 3.60644ZM1.42857 12.3073V9.25683C1.72993 9.15175 2.00365 8.98181 2.22978 8.75941C2.45592 8.53701 2.62876 8.26776 2.73571 7.97128H12.2643C12.3712 8.26786 12.544 8.53723 12.7701 8.75975C12.9963 8.98227 13.27 9.15233 13.5714 9.25753V12.308C13.27 12.4132 12.9963 12.5833 12.7701 12.8058C12.544 13.0283 12.3712 13.2977 12.2643 13.5943H2.73714C2.63013 13.2974 2.45712 13.0278 2.23073 12.8052C2.00434 12.5825 1.73029 12.4124 1.42857 12.3073Z" fill="#08A65C"/>
</svg>
