<svg width="15" height="20" viewBox="0 0 15 20" fill="none" xmlns="http://www.w3.org/2000/svg">
<path d="M5 6.01C5.27417 6.01 5.51083 5.91 5.71 5.71C5.91 5.51 6.01 5.27333 6.01 5C6.01 4.72583 5.91 4.48917 5.71 4.29C5.51 4.09 5.27333 3.99 5 3.99C4.72583 3.99 4.48917 4.09 4.29 4.29C4.09 4.49 3.99 4.72667 3.99 5C3.99 5.27417 4.09 5.51083 4.29 5.71C4.49 5.91 4.72667 6.01 5 6.01ZM5 11.01C5.27417 11.01 5.51083 10.91 5.71 10.71C5.91 10.51 6.01 10.2733 6.01 10C6.01 9.72583 5.91 9.48917 5.71 9.29C5.51 9.09 5.27333 8.99 5 8.99C4.72583 8.99 4.48917 9.09 4.29 9.29C4.09 9.49 3.99 9.72667 3.99 10C3.99 10.2742 4.09 10.5108 4.29 10.71C4.49 10.91 4.72667 11.01 5 11.01ZM5 16.01C5.27417 16.01 5.51083 15.91 5.71 15.71C5.91 15.51 6.01 15.2733 6.01 15C6.01 14.7258 5.91 14.4892 5.71 14.29C5.51 14.09 5.27333 13.99 5 13.99C4.72583 13.99 4.48917 14.09 4.29 14.29C4.09 14.49 3.99 14.7267 3.99 15C3.99 15.2742 4.09 15.5108 4.29 15.71C4.49 15.91 4.72667 16.01 5 16.01ZM2.01875 20C1.44375 20 0.96375 19.8075 0.57875 19.4225C0.192916 19.0367 0 18.5563 0 17.9813V2.01875C0 1.44375 0.192916 0.96375 0.57875 0.57875C0.96375 0.192916 1.44375 0 2.01875 0H8.63125C8.90125 0 9.16333 0.0541668 9.4175 0.1625C9.67083 0.2725 9.88833 0.417917 10.07 0.59875L14.4012 4.93C14.5821 5.11167 14.7271 5.32917 14.8363 5.5825C14.9454 5.83667 15 6.09833 15 6.3675V17.98C15 18.5558 14.8075 19.0367 14.4225 19.4225C14.0367 19.8075 13.5563 20 12.9813 20H2.01875ZM2.01875 18.75H12.9813C13.2054 18.75 13.3896 18.6779 13.5337 18.5337C13.6779 18.3896 13.75 18.2054 13.75 17.9813V6.25H9.76C9.47 6.25 9.22917 6.15417 9.0375 5.9625C8.84583 5.77083 8.75 5.53 8.75 5.24V1.25H2.01875C1.79458 1.25 1.61042 1.32208 1.46625 1.46625C1.32208 1.61042 1.25 1.79458 1.25 2.01875V17.9813C1.25 18.2054 1.32208 18.3896 1.46625 18.5337C1.61042 18.6779 1.79458 18.75 2.01875 18.75Z" fill="#008CFF"/>
</svg>
