<svg width="20" height="14" viewBox="0 0 20 14" fill="none" xmlns="http://www.w3.org/2000/svg">
<path d="M2.94126 0.160037C3.05448 0.0553727 3.20671 -0.00217022 3.36447 6.2637e-05C3.52223 0.00229549 3.67259 0.064121 3.7825 0.171944C3.90268 0.291322 3.96862 0.451 3.96605 0.616373C3.96347 0.781746 3.89259 0.939492 3.76875 1.05543C2.15234 2.61326 1.24711 4.71608 1.25001 6.9064C1.25001 9.27585 2.28751 11.4143 3.955 12.9312C4.01939 12.9879 4.07128 13.0562 4.10764 13.1322C4.14401 13.2082 4.16411 13.2903 4.16679 13.3738C4.16946 13.4572 4.15466 13.5404 4.12323 13.6183C4.09181 13.6963 4.04439 13.7675 3.98375 13.8278C3.87622 13.9336 3.72961 13.9953 3.57508 13.9997C3.42055 14.0042 3.27029 13.951 3.15626 13.8516C2.1586 12.9618 1.36362 11.8861 0.820669 10.6913C0.277717 9.49659 -0.00161773 8.20829 7.04746e-06 6.9064C7.04746e-06 4.27025 1.12501 1.88414 2.94126 0.160037ZM16.2312 1.05543C16.1076 0.939334 16.0369 0.781501 16.0346 0.616129C16.0322 0.450757 16.0984 0.291167 16.2187 0.171944C16.3286 0.064483 16.4787 0.00288835 16.6362 0.000656512C16.7936 -0.00157533 16.9456 0.0557379 17.0587 0.160037C17.9923 1.0439 18.7329 2.09512 19.2377 3.25303C19.7425 4.41094 20.0016 5.65262 20 6.9064C20 9.64496 18.7875 12.1144 16.8437 13.8516C16.7297 13.951 16.5795 14.0042 16.4249 13.9997C16.2704 13.9953 16.1238 13.9336 16.0162 13.8278C15.9558 13.7675 15.9085 13.6964 15.8772 13.6185C15.8459 13.5407 15.8312 13.4577 15.8338 13.3744C15.8365 13.2911 15.8566 13.2091 15.8928 13.1332C15.9291 13.0573 15.9808 12.9891 16.045 12.9324C16.9011 12.1551 17.5824 11.22 18.0474 10.1841C18.5124 9.1482 18.7515 8.03304 18.75 6.9064C18.7529 4.71571 17.8477 2.6137 16.2312 1.05543ZM5.165 2.25086C5.27639 2.14981 5.42537 2.09505 5.57915 2.09862C5.73292 2.10219 5.87892 2.16381 5.985 2.26991C6.245 2.51757 6.21875 2.92479 5.9625 3.17483C4.94247 4.17375 4.37277 5.51289 4.375 6.9064C4.375 8.44238 5.05375 9.82832 6.1425 10.8059C6.4175 11.0523 6.455 11.4738 6.18625 11.7298C6.08324 11.8319 5.94297 11.8922 5.7945 11.8984C5.64604 11.9046 5.50076 11.8562 5.38875 11.7632C4.6752 11.1499 4.10494 10.4007 3.71496 9.56397C3.32498 8.72728 3.12398 7.82185 3.12501 6.9064C3.12363 6.04027 3.3033 5.18254 3.65355 4.38324C4.00379 3.58394 4.5176 2.85905 5.165 2.25086ZM14.0375 3.17483C13.7812 2.92479 13.755 2.51757 14.015 2.26991C14.1211 2.16381 14.2671 2.10219 14.4209 2.09862C14.5746 2.09505 14.7236 2.14981 14.835 2.25086C15.4822 2.85917 15.9959 3.58408 16.3462 4.38336C16.6964 5.18263 16.8762 6.0403 16.875 6.9064C16.8764 7.82196 16.6756 8.72757 16.2859 9.56447C15.8961 10.4014 15.326 11.1509 14.6125 11.7644C14.5 11.8578 14.354 11.9063 14.205 11.8996C14.0559 11.8929 13.9153 11.8317 13.8125 11.7286C13.545 11.4738 13.5825 11.0523 13.8575 10.8059C14.4164 10.3055 14.8615 9.70135 15.1656 9.03064C15.4696 8.35993 15.6259 7.63696 15.625 6.9064C15.6272 5.51289 15.0575 4.17375 14.0375 3.17483ZM10 5.41806C9.5856 5.41806 9.18817 5.57487 8.89515 5.85399C8.60212 6.13311 8.4375 6.51167 8.4375 6.9064C8.4375 7.30114 8.60212 7.6797 8.89515 7.95882C9.18817 8.23794 9.5856 8.39475 10 8.39475C10.4144 8.39475 10.8118 8.23794 11.1049 7.95882C11.3979 7.6797 11.5625 7.30114 11.5625 6.9064C11.5625 6.51167 11.3979 6.13311 11.1049 5.85399C10.8118 5.57487 10.4144 5.41806 10 5.41806Z" fill="#0048FF"/>
</svg>
